{"title":"NJPW World Pro-Wrestling on AXS TV 2015-10-16 400p HDTV-XHP -={S","uid":12588986,"size":791577684,"categoryP":"video","categoryS":"tv_shows","magnet":"?xt=urn:btih:f802c431b2e1e7fcbd5b9ad8640ac736b15608f2&amp;dn=NJPW+World+Pro-Wrestling+on+AXS+TV+2015-10-16+400p+HDTV-XHP+-%3D%7BS&amp;tr=udp%3A%2F%2Ftracker.leechers-paradise.org%3A6969&amp;tr=udp%3A%2F%2Fzer0day.ch%3A1337&amp;tr=udp%3A%2F%2Fopen.demonii.com%3A1337&amp;tr=udp%3A%2F%2Ftracker.coppersurfer.tk%3A6969&amp;tr=udp%3A%2F%2Fexodus.desync.com%3A6969","seeders":0,"leechers":0,"uploader":"CenaCme","files":3,"time":1445070892,"description":"XHP Media Encode\r\n\r\nSource: HDTV rip\r\n\r\n===== File Info =====\r\nFormat                      : MPEG-4\r\nFormat profile              : Base Media / Version 2\r\nCodec ID                    : mp42\r\nFile size                  : 755 MiB\r\nDuration                    : 48mn 23s\r\nOverall bit rate mode      : Variable\r\nOverall bit rate            : 2 181 Kbps\r\nEpisode name                : NJPW World Pro-Wrestling on AXS TV 2015-10-16\r\n\r\n===== Video Info ===== \r\nID                          : 1\r\nFormat                      : AVC\r\nFormat/Info                : Advanced Video Codec\r\nFormat profile              :   \r\nFormat settings, CABAC      : Yes\r\nFormat settings, ReFrames  : 4 frames\r\nCodec ID                    : avc1\r\nCodec ID/Info              : Advanced Video Coding\r\nDuration                    : 48mn 23s\r\nBit rate                    : 1 597 Kbps\r\nWidth                      : 712 pixels\r\nHeight                      : 400 pixels\r\nDisplay aspect ratio        : 16:9\r\nOriginal display aspect rat : 16:9\r\nFrame rate mode            : Variable\r\nFrame rate                  : 23.976 fps\r\nMinimum frame rate          : 23.974 fps\r\nMaximum frame rate          : 23.981 fps\r\nColor space                : YUV\r\nChroma subsampling          : 4:2:0\r\nBit depth                  : 8 bits\r\nScan type                  : Progressive\r\nBits/(Pixel*Frame)          : 0.234\r\nStream size                : 553 MiB (73%)\r\n\r\n===== Audio Info =====\r\nAudio #1\r\nID                          : 2\r\nFormat                      : AC-3\r\nFormat/Info                : Audio Coding 3\r\nMode extension              : CM (complete main)\r\nFormat settings, Endianness : Big\r\nCodec ID                    : ac-3\r\nDuration                    : 48mn 22s\r\nBit rate mode              : Constant\r\nBit rate                    : 384 Kbps\r\nChannel(s)                  : 6 channels\r\nChannel positions          : Front: L C R, Side: L R, LFE\r\nSampling rate              : 48.0 KHz\r\nBit depth                  : 16 bits\r\nCompression mode            : Lossy\r\nStream size                : 133 MiB (18%)\r\nTitle                      : Surround / Surround\r\n\r\nAudio #2\r\nID                          : 3\r\nFormat                      : AAC\r\nFormat/Info                : Advanced Audio Codec\r\nFormat profile              : LC\r\nCodec ID                    : 40\r\nDuration                    : 48mn 22s\r\nBit rate mode              : Variable\r\nBit rate                    : 192 Kbps\r\nChannel(s)                  : 2 channels\r\nChannel positions          : Front: L R\r\nSampling rate              : 48.0 KHz\r\nCompression mode            : Lossy\r\nStream size                : 66.4 MiB (9%)\r\nTitle                      : Stereo / Stereo\r\n\r\nNJPW World Pro-Wrestling on AXS TV 2015-10-16 Episode ripped from HDTV by brienj of XHP Media.\r\n\r\n\r\nThumb sheet:\r\n \nhttp://imgsparrow.co/image/8iM","torrent":{"xt":"urn:btih:f802c431b2e1e7fcbd5b9ad8640ac736b15608f2","amp;dn":"NJPW+World+Pro-Wrestling+on+AXS+TV+2015-10-16+400p+HDTV-XHP+-%3D%7BS","amp;tr":["udp%3A%2F%2Ftracker.leechers-paradise.org%3A6969","udp%3A%2F%2Fzer0day.ch%3A1337","udp%3A%2F%2Fopen.demonii.com%3A1337","udp%3A%2F%2Ftracker.coppersurfer.tk%3A6969","udp%3A%2F%2Fexodus.desync.com%3A6969"],"infoHash":"f802c431b2e1e7fcbd5b9ad8640ac736b15608f2","infoHashBuffer":{"type":"Buffer","data":[248,2,196,49,178,225,231,252,189,91,154,216,100,10,199,54,177,86,8,242]},"announce":[],"urlList":[]}}